<svg xmlns="http://www.w3.org/2000/svg" width="80" height="86.187" viewBox="0 0 80 86.187">
  <g id="Composant_57_1" data-name="Composant 57 – 1" transform="translate(1)">
    <path id="Tracé_4005" data-name="Tracé 4005" d="M11.522,211.642h7.124l-.7-4.071,2.975-4.345L16.768,189.76H15.319v10.413a1.859,1.859,0,0,1,1.6,1.84,1.84,1.84,0,1,1-3.68,0,1.859,1.859,0,0,1,1.6-1.84V189.76H13.4L9.252,203.226l2.975,4.345ZM.64,198.724H5.259v-4.619H3.38a11.919,11.919,0,0,1,9.395-9.356v1.84h4.619v-1.879a11.818,11.818,0,0,1,9.356,9.395H24.91v4.619h4.619v-4.619h-2.31a12.358,12.358,0,0,0-8.729-9.59h6.42v2.075h4.619V181.97H24.91v2.075H17.394V181.97H12.775v2.075H5.259V181.97H.64v4.619H5.259v-2.075H11.64a12.245,12.245,0,0,0-8.69,9.59H.64Zm.626-.626v-3.366H4.633V198.1Zm0-12.135V182.6H4.633v3.366Zm12.135,0V182.6h3.366v3.366ZM25.536,198.1v-3.366H28.9V198.1Zm0-12.135V182.6H28.9v3.366Z" transform="translate(24.602 -181.97)" fill="#fff" opacity="0.25"/>
    <text id="Design_production" data-name="Design &amp;
production" transform="translate(39 62.187)" fill="#fff" font-size="16" font-family="SupremeLLTT-Book, Supreme LL TT" opacity="0.25"><tspan x="-32" y="0">Design &amp;</tspan><tspan x="-39" y="20">production</tspan></text>
  </g>
</svg>
