<svg xmlns="http://www.w3.org/2000/svg" width="84" height="88.187" viewBox="0 0 84 88.187">
  <g id="Composant_59_1" data-name="Composant 59 – 1" transform="translate(1)">
    <path id="Tracé_4007" data-name="Tracé 4007" d="M24.9,581.007h4.775l.99-7.009h1.244c.381,0,.686-.279.813-.813l1.168-4.622h-.965a6.221,6.221,0,0,0,.432-1.981,1.877,1.877,0,0,0-.736-1.5l.711-16.939H21.244l.711,16.939a1.877,1.877,0,0,0-.736,1.5,6.221,6.221,0,0,0,.432,1.981h-.965l1.168,4.622c.127.533.432.813.813.813h1.244Zm-1.879-9.168.025-6.908H31.53l.025,6.908-3.251-.025.483-2.667a1.513,1.513,0,1,0-3,0l.483,2.667Z" transform="translate(14.033 -548.145)" fill="#fff" opacity="0.25"/>
    <text id="Advertising_data" data-name="Advertising
&amp; data" transform="translate(41 64.187)" fill="#fff" font-size="16" font-family="SupremeLLTT-Book, Supreme LL TT" opacity="0.25"><tspan x="-41" y="0">Advertising</tspan><tspan x="-24" y="20">&amp; data</tspan></text>
  </g>
</svg>
