<svg id="Composant_58_1" data-name="Composant 58 – 1" xmlns="http://www.w3.org/2000/svg" width="92" height="84.187" viewBox="0 0 92 84.187">
  <path id="Tracé_4006" data-name="Tracé 4006" d="M26.774,394.695h6.089v-2.283H26.774Zm-6.089,21.69a1.522,1.522,0,1,0,1.522-1.522A1.527,1.527,0,0,0,20.685,416.385Zm0-4.566a1.522,1.522,0,1,0,1.522-1.522A1.527,1.527,0,0,0,20.685,411.819Zm0-3.425h6.089v-2.283H20.685Zm0-4.566h6.089v-2.283H20.685Zm0-4.566h6.089v-2.283H20.685Zm0-5.708a1.522,1.522,0,1,0,1.522-1.522A1.527,1.527,0,0,0,20.685,393.553Zm6.089,22.832a1.522,1.522,0,1,0,1.522-1.522A1.527,1.527,0,0,0,26.774,416.385Zm3.044-9.133a1.522,1.522,0,1,0,1.522-1.522A1.527,1.527,0,0,0,29.818,407.252Zm0-4.566a1.522,1.522,0,1,0,1.522-1.522A1.527,1.527,0,0,0,29.818,402.686Zm0-4.566A1.522,1.522,0,1,0,31.34,396.6,1.527,1.527,0,0,0,29.818,398.12Zm3.044,19.407h6.089v-2.283H32.862Zm3.044-10.274a1.522,1.522,0,1,0,1.522-1.522A1.527,1.527,0,0,0,35.907,407.252Zm0-3.425H42v-2.283H35.907Zm0-5.708a1.522,1.522,0,1,0,1.522-1.522A1.527,1.527,0,0,0,35.907,398.12ZM42,416.385a1.522,1.522,0,1,0,1.522-1.522A1.527,1.527,0,0,0,42,416.385Zm0-18.266a1.522,1.522,0,1,0,1.522-1.522A1.527,1.527,0,0,0,42,398.12Zm3.044,4.566a1.522,1.522,0,1,0,1.522-1.522A1.527,1.527,0,0,0,45.039,402.686Z" transform="translate(12.136 -392.031)" fill="#fff" opacity="0.25"/>
  <text id="Technology_innovation" data-name="Technology 
&amp; innovation" transform="translate(46 60.187)" fill="#fff" font-size="16" font-family="SupremeLLTT-Book, Supreme LL TT" opacity="0.25"><tspan x="-42" y="0">Technology </tspan><tspan x="-45" y="20">&amp; innovation</tspan></text>
</svg>
