<svg id="Composant_56_1" data-name="Composant 56 – 1" xmlns="http://www.w3.org/2000/svg" width="100" height="89.187" viewBox="0 0 100 89.187">
  <path id="Tracé_4004" data-name="Tracé 4004" d="M.64,2.081V5H19.864V2.081A2.763,2.763,0,0,0,16.82-.963H15.538l.961-3.4a27.19,27.19,0,0,0,1.322-9.091c0-3.6-2.483-8.13-6.208-8.53a5.308,5.308,0,0,0-4-1.4l.561,2.363L.64-15.02c0,2.483,2.683,4.285,4.566,2.964l1.6-1.121a6.037,6.037,0,0,0,2.884.721,6.85,6.85,0,0,0,4.445-1.682l.521.521c-1.922,1.8-5.847,2.123-7.77,5.206A14.2,14.2,0,0,0,4.965-.963H3.684A2.763,2.763,0,0,0,.64,2.081Z" transform="translate(39.969 23.399)" fill="#fff"/>
  <text id="Strategy_Consulting" data-name="Strategy &amp;
Consulting" transform="translate(50 60.187)" fill="#fff" font-size="20" font-family="SupremeLLTT-Bold, Supreme LL TT" font-weight="700"><tspan x="-49" y="0">Strategy &amp;</tspan><tspan x="-49" y="24">Consulting</tspan></text>
</svg>
